<?xml version="1.0" encoding="utf-8"?>
<!-- Generator: Adobe Illustrator 17.0.0, SVG Export Plug-In . SVG Version: 6.00 Build 0)  -->
<!DOCTYPE svg PUBLIC "-//W3C//DTD SVG 1.1//EN" "http://www.w3.org/Graphics/SVG/1.1/DTD/svg11.dtd" [
	<!ENTITY st0 "fill:#F9FCFC;">
]>
<svg version="1.1" id="Layer_1" xmlns="http://www.w3.org/2000/svg" xmlns:xlink="http://www.w3.org/1999/xlink" x="0px" y="0px"
	 width="420px" height="30px" viewBox="0 0 420 30" style="enable-background:new 0 0 420 30;" xml:space="preserve">
<g>
	<g>
		<path style="&st0;" d="M18.997,5.886l1.681-2.844c-1.117-0.97-5.247-2.844-10.036-1.666C5.857,2.549,1.896,6.815,1.202,11.382
			c-0.696,4.568,0.262,9.591,5.221,12.966c5.047,3.439,10.818,2.956,14.534,0.262c3.479-2.522,5.046-5.353,5.611-9.181h8.397
			l-0.042,7.006h3.351l0.043-17.491l-3.263,0.042l-0.046,6.876h-8.352l-0.088-6.876h-3.308c0,0,0,8.615,0,8.746
			c0,0.032-0.053,2.051-0.826,3.937c-0.694,1.696-2.073,3.258-2.784,3.721c-3.65,2.381-6.61,2.897-11.009,0.391
			c-4.046-2.307-4.437-7.614-4.22-9.182c0.217-1.565,1.392-5.264,5.264-7.265C13.559,3.333,17.865,5.176,18.997,5.886z"/>
		<path style="&st0;" d="M18.387,12.502c0.065-0.326,0.351-1.732,0.099-2.489c-0.24-0.718-0.437-1.626-2.078-2.329
			C16.3,7.639,15.79,7.352,15.191,7.238c-0.674-0.126-1.441-0.08-1.481-0.098c-0.486-0.205-1.718-0.565-2.914,0.414
			c0,0-0.304,0.22-0.915,0.347c0,0-1.109,0.633-1.087,1.306c0.02,0.676,0.166,0.635,0.174,0.85c0.007,0.225,0,0.348-0.023,0.434
			c-0.024,0.088,0.299,0.122,0.413,0.154c0.151,0.043,0.631,0.595,0.167,1.35c0,0-0.515,0.499-0.712,0.579
			c-0.173,0.072,0.044,0.275,0.132,0.375c0,0,0.304,0.22,0.216,0.405c-0.085,0.19-0.118,0.139-0.1,0.421
			c0.004,0.071,0.079,0.079,0.247,0.22c0,0,0.051,0.02-0.025,0.161c-0.079,0.141-0.066,0.087,0.052,0.24
			C9.458,14.549,9.5,14.473,9.5,14.678c0,0.206-0.099,0.196-0.228,0.393c0,0-0.143,0.566,0.271,0.804
			c0.413,0.24,1.198,0.437,1.838,0.207c0.154-0.056,0.645-0.096,0.59,0.587c-0.013,0.131-0.23,0.697-0.567,0.925
			c-0.046,0.03,0.131,0.133,0.172,0.26c0.047,0.132-1.424,1.743-1.465,1.871c-0.047,0.131,0.605,0.513,1.86,0.796
			c0.631,0.141,1.908,0.285,2.784,0.141c0.914-0.154,1.663-0.363,2.448-0.676c0.164-0.066,1.316-0.478,0.828-0.804
			c-0.49-0.328-1.566-1.762-1.697-1.817c-0.133-0.054-0.033-0.24,0.01-0.326c0.043-0.088-0.024-0.141-0.194-0.316
			c-0.176-0.174-0.242-0.991-0.242-0.991s0.496,0.009,0.935-0.097c0.429-0.104,0.802-0.296,0.873-0.326
			c0.291-0.131,1.819-0.914,1.095-1.48c-0.499-0.39-0.334-0.642-0.433-1.295"/>
		<path style="&st0;" d="M54.473,18.888c0,2.602,0.05,2.95,1.458,3.098l0.777,0.073c0.146,0.102,0.096,0.547-0.049,0.619
			c-1.386-0.047-2.212-0.072-3.182-0.072c-0.972,0-1.823,0.025-3.377,0.072c-0.145-0.072-0.193-0.493,0-0.619l0.876-0.073
			c1.383-0.123,1.505-0.496,1.505-3.098V7.81c0-0.769,0-0.794-0.73-0.794h-1.336c-1.043,0-2.379,0.05-2.986,0.62
			c-0.583,0.545-0.826,1.092-1.093,1.712c-0.194,0.146-0.535,0.023-0.633-0.173c0.389-1.118,0.753-2.703,0.923-3.694
			c0.072-0.05,0.388-0.075,0.461,0c0.147,0.795,0.948,0.769,2.065,0.769h9.835c1.313,0,1.531-0.051,1.896-0.696
			c0.121-0.049,0.389-0.023,0.436,0.076c-0.267,1.016-0.436,3.023-0.363,3.767c-0.099,0.199-0.512,0.199-0.632,0.049
			c-0.073-0.62-0.242-1.537-0.608-1.81c-0.558-0.421-1.48-0.62-2.817-0.62h-1.725c-0.729,0-0.704,0.025-0.704,0.845V18.888z"/>
		<path style="&st0;" d="M63.605,8.628c0-1.462-0.026-1.612-0.753-2.055L62.61,6.424c-0.122-0.076-0.122-0.423,0-0.496
			c0.607-0.199,1.747-0.57,2.621-1.041c0.099,0,0.194,0.05,0.242,0.149c-0.022,0.744-0.069,1.981-0.069,3.073v5.203
			c0,0.224,0.022,0.422,0.095,0.472c0.874-0.693,2.041-1.288,3.278-1.288c2.307,0,3.134,1.461,3.134,3.196v4.139
			c0,1.786,0.048,2.058,0.922,2.156l0.656,0.073c0.171,0.126,0.121,0.547-0.048,0.619c-0.874-0.047-1.578-0.072-2.431-0.072
			c-0.872,0-1.6,0.025-2.256,0.072c-0.171-0.072-0.22-0.493-0.05-0.619l0.486-0.073c0.897-0.149,0.923-0.37,0.923-2.156v-3.544
			c0-1.586-0.753-2.652-2.307-2.652c-0.825,0-1.458,0.297-1.894,0.671c-0.439,0.37-0.509,0.493-0.509,1.36v4.165
			c0,1.786,0.048,2.033,0.922,2.156l0.51,0.073c0.169,0.102,0.121,0.547-0.048,0.619c-0.73-0.047-1.435-0.072-2.285-0.072
			c-0.874,0-1.603,0.025-2.379,0.072c-0.169-0.072-0.219-0.493-0.049-0.619l0.609-0.073c0.896-0.098,0.922-0.37,0.922-2.156V8.628z"
			/>
		<path style="&st0;" d="M77.036,16.261c-0.632,0-0.655,0.051-0.655,0.671c0,2.501,1.432,4.633,4.031,4.633
			c0.802,0,1.48-0.247,2.234-1.215c0.242-0.074,0.413,0.076,0.436,0.297c-0.799,1.686-2.548,2.304-3.812,2.304
			c-1.578,0-2.818-0.692-3.521-1.633c-0.73-0.968-1.022-2.133-1.022-3.222c0-3.05,1.97-5.601,4.884-5.601
			c2.088,0,3.449,1.461,3.449,2.949c0,0.346-0.049,0.545-0.098,0.644c-0.073,0.149-0.41,0.174-1.433,0.174H77.036z M78.541,15.517
			c1.798,0,2.332-0.098,2.527-0.247c0.072-0.051,0.146-0.149,0.146-0.472c0-0.693-0.462-1.56-1.871-1.56
			c-1.435,0-2.672,1.339-2.695,2.154c0,0.051,0,0.124,0.168,0.124H78.541z"/>
		<path style="&st0;" d="M93.501,7.96c1.776-1.412,4.034-2.109,6.557-2.109c1.314,0,3.159,0.275,4.301,0.596
			c0.291,0.076,0.462,0.126,0.679,0.101c0.025,0.569,0.146,2.13,0.34,3.643c-0.121,0.174-0.484,0.197-0.655,0.047
			c-0.364-1.684-1.457-3.617-4.98-3.617c-3.716,0-6.872,2.405-6.872,7.535c0,5.204,3.23,8.077,7.213,8.077
			c3.134,0,4.518-2.08,5.077-3.541c0.17-0.127,0.532-0.076,0.632,0.097c-0.169,1.289-0.803,2.924-1.166,3.396
			c-0.291,0.048-0.585,0.149-0.852,0.247c-0.534,0.199-2.281,0.571-3.837,0.571c-2.186,0-4.274-0.447-6.048-1.662
			c-1.941-1.36-3.45-3.618-3.45-6.814C90.439,11.776,91.655,9.422,93.501,7.96z"/>
		<path style="&st0;" d="M108.318,8.628c0-1.462-0.026-1.612-0.755-2.055l-0.242-0.149c-0.121-0.076-0.121-0.423,0-0.496
			c0.609-0.199,1.75-0.57,2.623-1.041c0.097,0,0.193,0.05,0.244,0.149c-0.026,0.744-0.073,1.981-0.073,3.073v5.203
			c0,0.224,0.023,0.422,0.096,0.472c0.875-0.693,2.042-1.288,3.28-1.288c2.306,0,3.133,1.461,3.133,3.196v4.139
			c0,1.786,0.049,2.058,0.923,2.156l0.655,0.073c0.17,0.126,0.121,0.547-0.048,0.619c-0.875-0.047-1.581-0.072-2.431-0.072
			c-0.873,0-1.603,0.025-2.258,0.072c-0.169-0.072-0.216-0.493-0.049-0.619l0.487-0.073c0.898-0.149,0.923-0.37,0.923-2.156v-3.544
			c0-1.586-0.753-2.652-2.307-2.652c-0.826,0-1.457,0.297-1.896,0.671c-0.436,0.37-0.51,0.493-0.51,1.36v4.165
			c0,1.786,0.048,2.033,0.923,2.156l0.51,0.073c0.172,0.102,0.122,0.547-0.049,0.619c-0.728-0.047-1.432-0.072-2.283-0.072
			c-0.873,0-1.601,0.025-2.38,0.072c-0.169-0.072-0.216-0.493-0.048-0.619l0.608-0.073c0.897-0.098,0.923-0.37,0.923-2.156V8.628z"
			/>
		<path style="&st0;" d="M120.969,15.491c0-0.964,0-1.089-0.654-1.535l-0.22-0.148c-0.095-0.099-0.095-0.371,0.026-0.447
			c0.559-0.2,1.943-0.843,2.5-1.215c0.121,0,0.22,0.051,0.244,0.149c-0.05,0.867-0.097,2.057-0.097,3.073v4.462
			c0,1.786,0.048,2.033,0.922,2.156l0.51,0.073c0.172,0.126,0.123,0.547-0.048,0.619c-0.729-0.047-1.432-0.072-2.281-0.072
			c-0.875,0-1.603,0.025-2.285,0.072c-0.168-0.072-0.218-0.493-0.048-0.619l0.51-0.073c0.897-0.123,0.922-0.37,0.922-2.156V15.491z
			 M122.961,7.463c0,0.867-0.608,1.266-1.263,1.266c-0.753,0-1.238-0.547-1.238-1.215c0-0.818,0.609-1.315,1.313-1.315
			C122.5,6.199,122.961,6.769,122.961,7.463z"/>
		<path style="&st0;" d="M128.668,19.83c0,1.786,0.048,2.033,0.923,2.156l0.584,0.073c0.171,0.126,0.121,0.547-0.048,0.619
			c-0.803-0.047-1.507-0.072-2.359-0.072c-0.872,0-1.601,0.025-2.329,0.072c-0.173-0.072-0.22-0.493-0.051-0.619l0.56-0.073
			c0.896-0.123,0.921-0.37,0.921-2.156V8.628c0-1.462-0.025-1.612-0.753-2.055l-0.242-0.149c-0.122-0.076-0.122-0.423,0-0.496
			c0.608-0.199,1.75-0.57,2.622-1.041c0.097,0,0.196,0.05,0.244,0.149c-0.026,0.744-0.073,1.981-0.073,3.073V19.83z"/>
		<path style="&st0;" d="M140.934,18.989c0,1.956,0.026,2.874,0.704,2.874c0.268,0,0.68-0.124,1.047-0.247
			c0.168,0.047,0.193,0.668-0.026,0.791c-1.021,0.149-2.526,0.522-3.207,0.794c-0.146,0-0.267-0.076-0.267-0.198v-0.421
			c0-0.373,0-0.672-0.048-0.769h-0.098c-1.068,0.744-1.894,1.139-3.058,1.139c-2.697,0-4.495-2.155-4.495-4.757
			c0-3.47,2.576-5.7,5.879-5.7c0.824,0,1.358,0.123,1.625,0.223c0.122,0,0.148-0.15,0.148-0.346V8.628
			c0-1.462-0.026-1.612-0.753-2.055l-0.243-0.149c-0.12-0.076-0.12-0.423,0-0.496c0.608-0.199,1.75-0.57,2.621-1.041
			c0.099,0,0.197,0.05,0.246,0.149c-0.026,0.744-0.074,1.981-0.074,3.073V18.989z M139.137,15.271c0-0.497-0.098-0.719-0.268-0.965
			c-0.363-0.522-1.093-1.042-2.04-1.042c-2.211,0-3.353,1.956-3.353,4.114c0,2.255,1.24,4.387,3.62,4.387
			c0.655,0,1.479-0.297,1.871-0.695c0.144-0.15,0.17-0.52,0.17-0.916V15.271z"/>
		<path style="&st0;" d="M145.28,15.491c0-0.964,0-1.089-0.655-1.535l-0.219-0.148c-0.096-0.099-0.096-0.371,0.026-0.447
			c0.559-0.2,1.846-0.843,2.453-1.215c0.121,0.025,0.194,0.076,0.194,0.175v1.436c0,0.123,0.025,0.199,0.072,0.224
			c0.85-0.718,1.772-1.487,2.673-1.487c0.608,0,1.092,0.395,1.092,0.99c0,0.82-0.656,1.139-1.043,1.139
			c-0.243,0-0.364-0.073-0.535-0.171c-0.363-0.25-0.728-0.398-1.069-0.398c-0.388,0-0.68,0.224-0.874,0.496
			c-0.243,0.348-0.315,1.067-0.315,1.909v3.37c0,1.786,0.048,2.08,0.971,2.156l0.873,0.073c0.172,0.126,0.122,0.547-0.048,0.619
			c-1.141-0.047-1.844-0.072-2.695-0.072c-0.874,0-1.603,0.025-2.237,0.072c-0.169-0.072-0.216-0.493-0.048-0.619l0.462-0.073
			c0.9-0.149,0.922-0.37,0.922-2.156V15.491z"/>
		<path style="&st0;" d="M153.782,16.261c-0.633,0-0.656,0.051-0.656,0.671c0,2.501,1.432,4.633,4.032,4.633
			c0.802,0,1.482-0.247,2.234-1.215c0.244-0.074,0.412,0.076,0.438,0.297c-0.801,1.686-2.552,2.304-3.815,2.304
			c-1.577,0-2.816-0.692-3.52-1.633c-0.73-0.968-1.019-2.133-1.019-3.222c0-3.05,1.966-5.601,4.88-5.601
			c2.09,0,3.448,1.461,3.448,2.949c0,0.346-0.048,0.545-0.095,0.644c-0.073,0.149-0.413,0.174-1.434,0.174H153.782z M155.287,15.517
			c1.796,0,2.332-0.098,2.526-0.247c0.073-0.051,0.147-0.149,0.147-0.472c0-0.693-0.462-1.56-1.872-1.56
			c-1.431,0-2.673,1.339-2.695,2.154c0,0.051,0,0.124,0.169,0.124H155.287z"/>
		<path style="&st0;" d="M162.524,15.491c0-0.964,0-1.089-0.655-1.535l-0.22-0.148c-0.095-0.099-0.095-0.371,0.026-0.447
			c0.557-0.2,1.943-0.843,2.427-1.215c0.098,0,0.22,0.051,0.268,0.175c-0.048,0.569-0.048,0.943-0.048,1.164
			c0,0.149,0.098,0.272,0.268,0.272c1.021-0.642,2.16-1.263,3.4-1.263c2.014,0,2.841,1.412,2.841,3.073v4.262
			c0,1.786,0.048,2.033,0.922,2.156l0.534,0.073c0.17,0.126,0.122,0.547-0.049,0.619c-0.728-0.047-1.434-0.072-2.283-0.072
			c-0.875,0-1.603,0.025-2.258,0.072c-0.169-0.072-0.219-0.493-0.048-0.619l0.461-0.073c0.897-0.149,0.922-0.37,0.922-2.156v-3.693
			c0-1.412-0.633-2.453-2.283-2.453c-0.923,0-1.725,0.396-2.065,0.867c-0.315,0.422-0.363,0.77-0.363,1.488v3.79
			c0,1.786,0.048,2.008,0.922,2.156l0.437,0.073c0.172,0.126,0.123,0.547-0.048,0.619c-0.657-0.047-1.359-0.072-2.209-0.072
			c-0.875,0-1.604,0.025-2.285,0.072c-0.169-0.072-0.219-0.493-0.048-0.619l0.51-0.073c0.897-0.123,0.923-0.37,0.923-2.156V15.491z"
			/>
		<path style="&st0;" d="M175.47,7.637c0,1.712-1.312,2.9-2.841,3.37c-0.193-0.097-0.292-0.344-0.172-0.519
			c0.9-0.421,1.846-1.116,1.846-2.132c0-0.942-0.752-1.361-1.213-1.387c-0.34-0.025-0.654-0.224-0.654-0.692
			c0-0.374,0.216-1.017,1.164-1.017C174.594,5.259,175.47,6.348,175.47,7.637z"/>
		<path style="&st0;" d="M181.419,12.94c0.219,0.545,0.389,1.339,0.389,2.007c-0.095,0.174-0.461,0.224-0.582,0.075
			c-0.415-1.092-1.143-1.81-2.138-1.81c-0.948,0-1.552,0.621-1.552,1.512c0,1.018,1.018,1.561,1.868,2.058
			c1.288,0.743,2.478,1.585,2.478,3.346c0,1.882-1.699,2.823-3.498,2.823c-1.142,0-1.991-0.247-2.599-0.743
			c-0.193-0.47-0.339-1.684-0.291-2.502c0.121-0.148,0.438-0.173,0.559-0.024c0.414,1.362,1.19,2.551,2.574,2.551
			c0.875,0,1.63-0.519,1.63-1.585c0-1.139-0.974-1.759-1.872-2.279c-1.41-0.82-2.405-1.686-2.405-3.048
			c0-1.81,1.457-2.826,3.303-2.826C180.303,12.495,181.2,12.741,181.419,12.94z"/>
		<path style="&st0;" d="M194.8,14.602c-1.165,0-1.215,0.047-1.215,0.791v3.495c0,2.602,0.125,2.95,1.483,3.098l0.706,0.073
			c0.145,0.102,0.096,0.547-0.051,0.619c-1.311-0.047-2.138-0.072-3.083-0.072c-1.046,0-1.871,0.048-2.818,0.072
			c-0.147-0.072-0.194-0.47-0.048-0.619l0.413-0.073c1.358-0.248,1.407-0.496,1.407-3.098V9.966c0-2.602-0.169-3.023-1.432-3.121
			l-0.631-0.05c-0.146-0.099-0.098-0.545,0.049-0.619c1.19,0.023,2.014,0.075,3.06,0.075c0.945,0,1.772-0.025,2.815-0.075
			c0.147,0.075,0.194,0.52,0.051,0.619l-0.464,0.05c-1.407,0.149-1.457,0.519-1.457,3.121v2.85c0,0.767,0.051,0.792,1.215,0.792
			h6.946c1.168,0,1.215-0.025,1.215-0.792v-2.85c0-2.602-0.048-2.971-1.483-3.121l-0.46-0.05c-0.144-0.099-0.095-0.545,0.05-0.619
			c1.116,0.049,1.942,0.075,2.937,0.075c0.947,0,1.774-0.025,2.866-0.075c0.147,0.075,0.194,0.52,0.049,0.619l-0.511,0.05
			c-1.409,0.149-1.457,0.519-1.457,3.121v8.922c0,2.602,0.049,2.924,1.457,3.098l0.583,0.073c0.147,0.102,0.099,0.547-0.048,0.619
			c-1.165-0.047-1.993-0.072-2.939-0.072c-0.995,0-1.869,0.025-2.937,0.072c-0.145-0.072-0.193-0.47-0.05-0.619l0.46-0.073
			c1.483-0.199,1.436-0.496,1.483-3.098v-3.495c0-0.744-0.048-0.791-1.215-0.791H194.8z"/>
		<path style="&st0;" d="M218.48,17.624c0,3.099-2.087,5.328-5.124,5.328c-2.794,0-4.98-2.007-4.98-5.106
			c0-3.121,2.31-5.351,5.173-5.351C216.27,12.495,218.48,14.577,218.48,17.624z M213.26,13.239c-1.604,0-2.794,1.56-2.794,4.288
			c0,2.253,0.995,4.682,3.135,4.682c2.135,0,2.793-2.28,2.793-4.188C216.393,15.915,215.566,13.239,213.26,13.239z"/>
		<path style="&st0;" d="M225.887,12.94c0.22,0.545,0.389,1.339,0.389,2.007c-0.097,0.174-0.462,0.224-0.583,0.075
			c-0.413-1.092-1.142-1.81-2.137-1.81c-0.946,0-1.555,0.621-1.555,1.512c0,1.018,1.022,1.561,1.872,2.058
			c1.286,0.743,2.476,1.585,2.476,3.346c0,1.882-1.7,2.823-3.498,2.823c-1.141,0-1.992-0.247-2.599-0.743
			c-0.194-0.47-0.339-1.684-0.29-2.502c0.121-0.148,0.436-0.173,0.557-0.024c0.413,1.362,1.191,2.551,2.574,2.551
			c0.874,0,1.628-0.519,1.628-1.585c0-1.139-0.97-1.759-1.87-2.279c-1.408-0.82-2.405-1.686-2.405-3.048
			c0-1.81,1.457-2.826,3.305-2.826C224.771,12.495,225.671,12.741,225.887,12.94z"/>
		<path style="&st0;" d="M229.047,15.491c0-0.964,0-1.089-0.656-1.535l-0.219-0.148c-0.098-0.099-0.098-0.371,0.026-0.447
			c0.63-0.272,1.773-0.867,2.402-1.339c0.146,0,0.245,0.051,0.292,0.174c-0.048,0.446-0.099,0.817-0.099,1.14
			c0,0.175,0.051,0.323,0.22,0.323c0.315-0.148,1.844-1.164,3.401-1.164c2.452,0,4.03,2.032,4.03,4.535
			c0,3.445-2.477,5.922-5.926,5.922c-0.436,0-1.117-0.048-1.336-0.098c-0.217,0.05-0.337,0.173-0.337,0.693v2.602
			c0,1.759,0.048,1.984,0.922,2.107l0.946,0.124c0.171,0.123,0.124,0.544-0.048,0.62c-1.166-0.051-1.872-0.076-2.721-0.076
			c-0.874,0-1.603,0.025-2.281,0.076c-0.171-0.076-0.218-0.497-0.051-0.62l0.513-0.074c0.896-0.123,0.923-0.373,0.923-2.157V15.491z
			 M230.844,20.103c0,0.791,0.242,1.089,0.728,1.488c0.485,0.369,1.239,0.544,1.747,0.544c1.991,0,3.16-1.883,3.16-4.46
			c0-1.984-1.094-3.991-3.281-3.991c-1.044,0-1.797,0.396-2.064,0.693c-0.217,0.272-0.29,0.645-0.29,1.462V20.103z"/>
		<path style="&st0;" d="M241.578,15.491c0-0.964,0-1.089-0.655-1.535l-0.218-0.148c-0.099-0.099-0.099-0.371,0.022-0.447
			c0.561-0.2,1.943-0.843,2.504-1.215c0.12,0,0.216,0.051,0.241,0.149c-0.048,0.867-0.096,2.057-0.096,3.073v4.462
			c0,1.786,0.049,2.033,0.923,2.156l0.51,0.073c0.169,0.126,0.122,0.547-0.049,0.619c-0.728-0.047-1.434-0.072-2.283-0.072
			c-0.875,0-1.604,0.025-2.281,0.072c-0.172-0.072-0.22-0.493-0.052-0.619l0.512-0.073c0.898-0.123,0.923-0.37,0.923-2.156V15.491z
			 M243.569,7.463c0,0.867-0.606,1.266-1.262,1.266c-0.754,0-1.24-0.547-1.24-1.215c0-0.818,0.607-1.315,1.312-1.315
			C243.11,6.199,243.569,6.769,243.569,7.463z"/>
		<path style="&st0;" d="M249.714,13.881c-0.414,0-0.439,0.075-0.439,0.596v4.635c0,1.438,0.172,2.751,1.776,2.751
			c0.242,0,0.462-0.05,0.654-0.124c0.22-0.075,0.535-0.347,0.608-0.347c0.195,0,0.29,0.272,0.243,0.421
			c-0.436,0.521-1.311,1.139-2.552,1.139c-2.088,0-2.524-1.188-2.524-2.675v-5.674c0-0.672-0.026-0.722-0.512-0.722h-0.68
			c-0.144-0.098-0.169-0.369-0.071-0.519c0.704-0.222,1.312-0.545,1.553-0.769c0.315-0.298,0.776-0.966,1.02-1.462
			c0.122-0.048,0.414-0.048,0.51,0.123v1.117c0,0.445,0.027,0.471,0.436,0.471h2.699c0.29,0.223,0.241,0.891,0.023,1.039H249.714z"
			/>
		<path style="&st0;" d="M258.457,17.476c0.363-0.124,0.388-0.349,0.413-0.719l0.023-1.14c0.025-0.917-0.269-2.157-1.773-2.157
			c-0.681,0-1.505,0.347-1.555,1.116c-0.022,0.396-0.049,0.693-0.243,0.842c-0.362,0.297-1.018,0.471-1.383,0.471
			c-0.22,0-0.341-0.123-0.341-0.347c0-1.288,2.746-3.048,4.518-3.048c1.75,0,2.598,1.041,2.527,2.898l-0.147,4.313
			c-0.049,1.14,0.172,2.156,1.118,2.156c0.244,0,0.46-0.076,0.606-0.149c0.121-0.075,0.242-0.173,0.315-0.173
			c0.099,0,0.172,0.149,0.172,0.322c0,0.123-0.849,1.089-2.039,1.089c-0.586,0-1.168-0.222-1.581-0.766
			c-0.095-0.149-0.242-0.347-0.388-0.347c-0.17,0-0.462,0.222-0.945,0.496c-0.534,0.298-1.069,0.618-1.751,0.618
			c-0.704,0-1.287-0.196-1.699-0.57c-0.463-0.421-0.753-1.041-0.753-1.734c0-0.965,0.461-1.536,2.014-2.105L258.457,17.476z
			 M256.951,21.838c0.486,0,1.239-0.371,1.481-0.62c0.291-0.298,0.317-0.642,0.317-1.165l0.048-1.462
			c0-0.273-0.098-0.322-0.244-0.322c-0.145,0-0.557,0.101-0.995,0.249c-1.432,0.494-2.137,0.867-2.137,1.833
			C255.42,20.771,255.712,21.838,256.951,21.838z"/>
		<path style="&st0;" d="M266.35,19.83c0,1.786,0.047,2.033,0.922,2.156l0.584,0.073c0.17,0.126,0.121,0.547-0.049,0.619
			c-0.802-0.047-1.506-0.072-2.356-0.072c-0.873,0-1.602,0.025-2.331,0.072c-0.172-0.072-0.219-0.493-0.051-0.619l0.56-0.073
			c0.897-0.123,0.923-0.37,0.923-2.156V8.628c0-1.462-0.026-1.612-0.754-2.055l-0.241-0.149c-0.121-0.076-0.121-0.423,0-0.496
			c0.607-0.199,1.749-0.57,2.621-1.041c0.099,0,0.194,0.05,0.244,0.149c-0.026,0.744-0.072,1.981-0.072,3.073V19.83z"/>
	</g>
	<g>
		<path style="&st0;" d="M281.763,14.888c-0.073,1.362-0.777,3.741-2.574,5.625c-1.506,1.585-2.819,1.709-3.476,1.709
			c-1.552,0-2.574-1.165-2.427-3.295c0.095-1.538,0.995-3.94,2.647-5.552c1.263-1.24,2.354-1.611,3.351-1.611
			C281.009,11.764,281.86,13.078,281.763,14.888z M277.342,13.698c-1.409,1.932-2.356,4.882-2.43,6.195
			c-0.048,0.867,0.293,1.585,0.995,1.585c0.535,0,1.143-0.222,1.919-1.288c1.069-1.462,2.211-4.731,2.258-6.045
			c0.026-0.769-0.121-1.635-0.971-1.635C278.628,12.509,278.046,12.731,277.342,13.698z"/>
		<path style="&st0;" d="M287.492,13.028c-0.144,0.421-0.338,1.215-0.556,1.959c-0.777,2.75-1.483,5.501-2.284,8.228
			c-0.679,2.229-1.407,3.592-1.919,4.063c-0.289,0.299-1.336,1.264-2.768,1.264c-1.116,0-1.578-0.843-1.578-1.264
			c0-0.546,0.289-0.768,0.462-0.891c0.341-0.298,0.508-0.099,0.704,0.222c0.339,0.569,0.973,0.917,1.457,0.917
			c0.438,0,1.02-0.37,1.529-2.057c1.241-4.14,2.04-8.4,3.206-12.441h-2.015c-0.242-0.222-0.146-0.693,0.171-0.915h2.088
			c0.632-2.231,1.262-4.165,2.696-5.9c1.213-1.461,2.647-2.057,4.078-2.057c1.021,0,1.993,0.645,1.993,1.636
			c0,0.769-0.656,1.536-1.044,1.536c-0.219,0-0.317-0.222-0.34-0.396c-0.073-1.487-0.851-1.934-1.482-1.934
			c-0.703,0-1.312,0.497-1.894,1.339c-1.142,1.662-1.628,3.668-2.283,5.776h3.036c0.172,0.272,0.123,0.643-0.242,0.915H287.492z"/>
		<path style="&st0;" d="M301.654,18.158c0,2.602,0.048,2.925,1.603,3.098l0.655,0.073c0.147,0.126,0.095,0.547-0.049,0.62
			c-1.386-0.048-2.188-0.073-3.158-0.073c-1.019,0-1.893,0.025-2.962,0.073c-0.147-0.073-0.195-0.472-0.047-0.62l0.508-0.073
			c1.409-0.199,1.456-0.496,1.456-3.098V9.014c0-2.107-0.048-2.553-1.141-2.651l-0.875-0.099c-0.169-0.149-0.145-0.522,0.052-0.62
			c1.285-0.174,2.79-0.199,4.808-0.199c2.015,0,3.52,0.272,4.663,0.99c1.116,0.721,1.94,2.01,1.94,3.718
			c0,2.28-1.383,3.421-2.428,3.94c-1.069,0.52-2.355,0.744-3.351,0.744c-0.171-0.076-0.171-0.446-0.025-0.496
			c2.622-0.494,3.569-2.007,3.569-4.162c0-2.405-1.383-3.966-3.909-3.966c-1.289,0-1.311,0.099-1.311,0.893V18.158z"/>
		<path style="&st0;" d="M311.78,7.898c0-1.462-0.025-1.612-0.754-2.055l-0.242-0.148c-0.12-0.077-0.12-0.425,0-0.497
			c0.608-0.2,1.75-0.57,2.625-1.042c0.095,0,0.194,0.05,0.241,0.149c-0.025,0.744-0.072,1.981-0.072,3.074v5.202
			c0,0.225,0.026,0.422,0.099,0.472c0.871-0.693,2.038-1.289,3.277-1.289c2.307,0,3.134,1.462,3.134,3.197v4.14
			c0,1.785,0.049,2.057,0.923,2.155l0.655,0.073c0.171,0.126,0.121,0.547-0.048,0.62c-0.876-0.048-1.578-0.073-2.431-0.073
			c-0.872,0-1.6,0.025-2.258,0.073c-0.17-0.073-0.217-0.494-0.049-0.62l0.487-0.073c0.896-0.148,0.922-0.37,0.922-2.155v-3.545
			c0-1.586-0.753-2.653-2.307-2.653c-0.826,0-1.456,0.299-1.895,0.671c-0.437,0.371-0.509,0.494-0.509,1.362v4.164
			c0,1.785,0.048,2.032,0.922,2.155l0.511,0.073c0.171,0.101,0.122,0.547-0.049,0.62c-0.729-0.048-1.432-0.073-2.282-0.073
			c-0.874,0-1.602,0.025-2.381,0.073c-0.17-0.073-0.218-0.494-0.05-0.62l0.609-0.073c0.898-0.098,0.923-0.37,0.923-2.155V7.898z"/>
		<path style="&st0;" d="M324.433,14.762c0-0.965,0-1.089-0.656-1.536l-0.216-0.148c-0.098-0.098-0.098-0.371,0.023-0.447
			c0.558-0.198,1.944-0.842,2.501-1.214c0.123,0,0.22,0.05,0.244,0.148c-0.05,0.868-0.097,2.057-0.097,3.073v4.462
			c0,1.785,0.048,2.032,0.922,2.155l0.512,0.073c0.169,0.126,0.121,0.547-0.051,0.62c-0.729-0.048-1.432-0.073-2.281-0.073
			c-0.875,0-1.604,0.025-2.284,0.073c-0.17-0.073-0.217-0.494-0.049-0.62l0.511-0.073c0.9-0.123,0.922-0.37,0.922-2.155V14.762z
			 M326.426,6.733c0,0.868-0.609,1.266-1.265,1.266c-0.749,0-1.237-0.547-1.237-1.216c0-0.816,0.609-1.313,1.313-1.313
			C325.963,5.47,326.426,6.039,326.426,6.733z"/>
		<path style="&st0;" d="M332.132,19.101c0,1.785,0.048,2.032,0.922,2.155l0.583,0.073c0.171,0.126,0.124,0.547-0.048,0.62
			c-0.801-0.048-1.505-0.073-2.354-0.073c-0.875,0-1.604,0.025-2.334,0.073c-0.171-0.073-0.218-0.494-0.048-0.62l0.557-0.073
			c0.9-0.123,0.924-0.37,0.924-2.155V7.898c0-1.462-0.024-1.612-0.752-2.055l-0.245-0.148c-0.119-0.077-0.119-0.425,0-0.497
			c0.608-0.2,1.751-0.57,2.624-1.042c0.096,0,0.196,0.05,0.243,0.149c-0.026,0.744-0.073,1.981-0.073,3.074V19.101z"/>
		<path style="&st0;" d="M339.857,16.746c0.363-0.123,0.389-0.347,0.41-0.718l0.027-1.14c0.025-0.917-0.269-2.157-1.774-2.157
			c-0.68,0-1.507,0.347-1.555,1.116c-0.023,0.396-0.048,0.693-0.241,0.843c-0.367,0.297-1.021,0.471-1.386,0.471
			c-0.218,0-0.339-0.123-0.339-0.349c0-1.287,2.742-3.048,4.517-3.048c1.749,0,2.599,1.042,2.527,2.901l-0.147,4.313
			c-0.048,1.14,0.17,2.155,1.117,2.155c0.242,0,0.462-0.076,0.608-0.15c0.121-0.076,0.241-0.174,0.315-0.174
			c0.097,0,0.171,0.15,0.171,0.323c0,0.123-0.853,1.089-2.042,1.089c-0.583,0-1.164-0.222-1.578-0.767
			c-0.096-0.148-0.242-0.347-0.389-0.347c-0.169,0-0.462,0.222-0.949,0.497c-0.533,0.297-1.069,0.618-1.746,0.618
			c-0.706,0-1.289-0.196-1.701-0.57c-0.462-0.421-0.751-1.041-0.751-1.735c0-0.965,0.46-1.534,2.013-2.104L339.857,16.746z
			 M338.35,21.108c0.485,0,1.239-0.37,1.482-0.619c0.292-0.299,0.316-0.645,0.316-1.165l0.046-1.462
			c0-0.273-0.095-0.323-0.242-0.323c-0.146,0-0.557,0.101-0.995,0.248c-1.432,0.494-2.137,0.868-2.137,1.833
			C336.819,20.042,337.111,21.108,338.35,21.108z"/>
		<path style="&st0;" d="M354.113,18.259c0,1.956,0.023,2.874,0.704,2.874c0.268,0,0.682-0.124,1.045-0.247
			c0.171,0.048,0.192,0.668-0.024,0.792c-1.021,0.148-2.526,0.521-3.207,0.794c-0.146,0-0.267-0.077-0.267-0.2v-0.421
			c0-0.374,0-0.67-0.05-0.769h-0.097c-1.069,0.744-1.893,1.14-3.059,1.14c-2.696,0-4.493-2.155-4.493-4.758
			c0-3.468,2.574-5.701,5.876-5.701c0.826,0,1.361,0.124,1.629,0.223c0.12,0,0.145-0.149,0.145-0.345V7.898
			c0-1.462-0.025-1.612-0.753-2.055l-0.242-0.148c-0.121-0.077-0.121-0.425,0-0.497c0.609-0.2,1.748-0.57,2.623-1.042
			c0.097,0,0.193,0.05,0.241,0.149c-0.023,0.744-0.07,1.981-0.07,3.074V18.259z M352.314,14.54c0-0.497-0.097-0.718-0.267-0.965
			c-0.364-0.522-1.093-1.041-2.041-1.041c-2.209,0-3.351,1.956-3.351,4.113c0,2.255,1.237,4.387,3.618,4.387
			c0.657,0,1.482-0.297,1.87-0.696c0.146-0.149,0.171-0.519,0.171-0.915V14.54z"/>
		<path style="&st0;" d="M359.236,15.531c-0.63,0-0.656,0.05-0.656,0.671c0,2.5,1.432,4.633,4.033,4.633
			c0.801,0,1.481-0.247,2.235-1.215c0.243-0.073,0.411,0.075,0.436,0.297c-0.801,1.687-2.55,2.305-3.815,2.305
			c-1.577,0-2.815-0.693-3.518-1.633c-0.729-0.969-1.02-2.134-1.02-3.222c0-3.051,1.966-5.604,4.879-5.604
			c2.091,0,3.449,1.462,3.449,2.951c0,0.345-0.049,0.544-0.096,0.642c-0.072,0.149-0.412,0.174-1.434,0.174H359.236z
			 M360.741,14.788c1.798,0,2.332-0.098,2.526-0.248c0.073-0.05,0.147-0.148,0.147-0.472c0-0.693-0.462-1.559-1.871-1.559
			c-1.432,0-2.67,1.338-2.696,2.155c0,0.051,0,0.123,0.17,0.123H360.741z"/>
		<path style="&st0;" d="M369.534,19.101c0,1.785,0.048,2.032,0.923,2.155l0.582,0.073c0.172,0.126,0.121,0.547-0.048,0.62
			c-0.802-0.048-1.505-0.073-2.357-0.073c-0.873,0-1.603,0.025-2.331,0.073c-0.171-0.073-0.219-0.494-0.05-0.62l0.559-0.073
			c0.898-0.123,0.922-0.37,0.922-2.155V7.898c0-1.462-0.024-1.612-0.753-2.055l-0.241-0.148c-0.122-0.077-0.122-0.425,0-0.497
			c0.606-0.2,1.749-0.57,2.62-1.042c0.1,0,0.197,0.05,0.246,0.149c-0.026,0.744-0.073,1.981-0.073,3.074V19.101z"/>
		<path style="&st0;" d="M373.566,14.762c0-0.965,0-1.089-0.656-1.536l-0.219-0.148c-0.095-0.098-0.095-0.371,0.026-0.447
			c0.629-0.272,1.771-0.868,2.404-1.338c0.144,0,0.242,0.05,0.29,0.173c-0.049,0.447-0.095,0.817-0.095,1.139
			c0,0.175,0.047,0.323,0.216,0.323c0.317-0.148,1.847-1.166,3.401-1.166c2.452,0,4.03,2.033,4.03,4.537
			c0,3.442-2.476,5.921-5.923,5.921c-0.439,0-1.12-0.048-1.337-0.099c-0.218,0.051-0.34,0.175-0.34,0.693v2.602
			c0,1.759,0.049,1.984,0.923,2.107l0.948,0.124c0.169,0.123,0.121,0.545-0.05,0.62c-1.165-0.051-1.868-0.076-2.721-0.076
			c-0.871,0-1.6,0.025-2.281,0.076c-0.171-0.076-0.22-0.497-0.049-0.62l0.511-0.072c0.896-0.124,0.923-0.374,0.923-2.159V14.762z
			 M375.363,19.373c0,0.792,0.241,1.089,0.729,1.488c0.487,0.371,1.237,0.545,1.75,0.545c1.992,0,3.157-1.884,3.157-4.461
			c0-1.984-1.094-3.99-3.28-3.99c-1.043,0-1.797,0.395-2.062,0.693c-0.218,0.273-0.292,0.644-0.292,1.462V19.373z"/>
		<path style="&st0;" d="M385.854,7.898c0-1.462-0.024-1.612-0.753-2.055l-0.242-0.148c-0.123-0.077-0.123-0.425,0-0.497
			c0.607-0.2,1.748-0.57,2.623-1.042c0.097,0,0.192,0.05,0.242,0.149c-0.023,0.744-0.071,1.981-0.071,3.074v5.202
			c0,0.225,0.022,0.422,0.095,0.472c0.875-0.693,2.04-1.289,3.281-1.289c2.306,0,3.131,1.462,3.131,3.197v4.14
			c0,1.785,0.051,2.057,0.923,2.155l0.657,0.073c0.169,0.126,0.121,0.547-0.05,0.62c-0.876-0.048-1.578-0.073-2.429-0.073
			c-0.873,0-1.604,0.025-2.258,0.073c-0.169-0.073-0.22-0.494-0.048-0.62l0.484-0.073c0.9-0.148,0.923-0.37,0.923-2.155v-3.545
			c0-1.586-0.751-2.653-2.307-2.653c-0.825,0-1.457,0.299-1.893,0.671c-0.438,0.371-0.51,0.494-0.51,1.362v4.164
			c0,1.785,0.049,2.032,0.923,2.155l0.509,0.073c0.171,0.101,0.123,0.547-0.047,0.62c-0.729-0.048-1.436-0.073-2.285-0.073
			c-0.874,0-1.602,0.025-2.379,0.073c-0.168-0.073-0.219-0.494-0.048-0.62l0.608-0.073c0.897-0.098,0.921-0.37,0.921-2.155V7.898z"
			/>
		<path style="&st0;" d="M398.508,14.762c0-0.965,0-1.089-0.654-1.536l-0.22-0.148c-0.098-0.098-0.098-0.371,0.025-0.447
			c0.558-0.198,1.942-0.842,2.501-1.214c0.121,0,0.22,0.05,0.242,0.148c-0.048,0.868-0.095,2.057-0.095,3.073v4.462
			c0,1.785,0.048,2.032,0.922,2.155l0.509,0.073c0.172,0.126,0.122,0.547-0.048,0.62c-0.729-0.048-1.435-0.073-2.284-0.073
			c-0.875,0-1.604,0.025-2.282,0.073c-0.171-0.073-0.219-0.494-0.051-0.62l0.513-0.073c0.897-0.123,0.922-0.37,0.922-2.155V14.762z
			 M400.501,6.733c0,0.868-0.609,1.266-1.263,1.266c-0.754,0-1.241-0.547-1.241-1.216c0-0.816,0.609-1.313,1.314-1.313
			C400.039,5.47,400.501,6.039,400.501,6.733z"/>
		<path style="&st0;" d="M408.027,16.746c0.367-0.123,0.39-0.347,0.413-0.718l0.027-1.14c0.022-0.917-0.268-2.157-1.776-2.157
			c-0.678,0-1.504,0.347-1.553,1.116c-0.026,0.396-0.051,0.693-0.244,0.843c-0.364,0.297-1.019,0.471-1.384,0.471
			c-0.217,0-0.341-0.123-0.341-0.349c0-1.287,2.746-3.048,4.518-3.048c1.75,0,2.6,1.042,2.526,2.901l-0.146,4.313
			c-0.048,1.14,0.171,2.155,1.12,2.155c0.242,0,0.461-0.076,0.605-0.15c0.123-0.076,0.244-0.174,0.318-0.174
			c0.095,0,0.169,0.15,0.169,0.323c0,0.123-0.85,1.089-2.041,1.089c-0.581,0-1.166-0.222-1.577-0.767
			c-0.098-0.148-0.244-0.347-0.391-0.347c-0.169,0-0.461,0.222-0.946,0.497c-0.534,0.297-1.069,0.618-1.75,0.618
			c-0.702,0-1.286-0.196-1.699-0.57c-0.461-0.421-0.753-1.041-0.753-1.735c0-0.965,0.462-1.534,2.017-2.104L408.027,16.746z
			 M406.523,21.108c0.487,0,1.237-0.37,1.482-0.619c0.289-0.299,0.314-0.645,0.314-1.165l0.049-1.462
			c0-0.273-0.098-0.323-0.242-0.323c-0.146,0-0.561,0.101-0.996,0.248c-1.435,0.494-2.138,0.868-2.138,1.833
			C404.991,20.042,405.285,21.108,406.523,21.108z"/>
		<path style="&st0;" d="M412.32,7.206c0-1.796,1.399-3.257,3.291-3.257c1.893,0,3.295,1.461,3.295,3.257
			c0,1.797-1.402,3.255-3.295,3.255C413.718,10.461,412.32,9.003,412.32,7.206z M415.611,10.096c1.564,0,2.757-1.27,2.757-2.898
			c0-1.619-1.193-2.88-2.757-2.88c-1.56,0-2.756,1.261-2.756,2.88C412.855,8.826,414.051,10.096,415.611,10.096z M414.558,6.312
			c0-0.583,0-0.679-0.328-0.716l-0.144-0.018c-0.05-0.047-0.05-0.132,0.02-0.169c0.507-0.029,0.874-0.039,1.422-0.039
			c0.561,0,1.289,0.123,1.289,0.951c0,0.479-0.404,0.781-0.689,0.892c-0.007,0.048,0,0.094,0.041,0.141
			c0.423,0.706,0.704,1.15,1.023,1.44c0.134,0.123,0.256,0.133,0.331,0.133c0.03,0.028,0.03,0.084,0,0.113
			c-0.048,0.008-0.163,0.028-0.283,0.028c-0.5,0-0.727-0.169-1.091-0.687c-0.131-0.188-0.341-0.583-0.518-0.837
			c-0.048-0.075-0.162-0.103-0.291-0.103c-0.218,0-0.238,0.019-0.238,0.123v0.527c0,0.611,0.04,0.715,0.321,0.742l0.188,0.02
			c0.057,0.038,0.057,0.15-0.01,0.18c-0.244-0.01-0.45-0.02-0.742-0.02c-0.281,0-0.519,0.01-0.753,0.02
			c-0.056-0.03-0.069-0.141-0.02-0.18l0.144-0.02c0.328-0.047,0.328-0.149,0.328-0.742V6.312z M415.101,6.989
			c0,0.187,0.04,0.197,0.368,0.197c0.526,0,0.754-0.329,0.754-0.8c0-0.374-0.273-0.764-0.781-0.764
			c-0.341,0-0.341,0.049-0.341,0.218V6.989z"/>
	</g>
</g>
</svg>
