<?xml version="1.0" encoding="utf-8"?>
<!-- Generator: Adobe Illustrator 17.0.0, SVG Export Plug-In . SVG Version: 6.00 Build 0)  -->
<!DOCTYPE svg PUBLIC "-//W3C//DTD SVG 1.1//EN" "http://www.w3.org/Graphics/SVG/1.1/DTD/svg11.dtd" [
	<!ENTITY st0 "fill:#FFFFFF;">
]>
<svg version="1.1" id="Layer_1" xmlns="http://www.w3.org/2000/svg" xmlns:xlink="http://www.w3.org/1999/xlink" x="0px" y="0px"
	 width="78px" height="30px" viewBox="0 0 78 30" style="enable-background:new 0 0 78 30;" xml:space="preserve">
<g>
	<g>
		<path style="&st0;" d="M19.135,5.924l1.695-2.864c-1.125-0.979-5.29-2.866-10.113-1.681C5.895,2.561,1.906,6.858,1.203,11.463
			c-0.701,4.604,0.265,9.662,5.262,13.065c5.084,3.463,10.901,2.976,14.644,0.263c3.507-2.542,5.085-5.393,5.656-9.25h8.462
			L35.182,22.6h3.377l0.045-17.626l-3.289,0.044l-0.045,6.928h-8.418l-0.087-6.928h-3.334c0,0,0,8.68,0,8.813
			c0,0.033-0.053,2.066-0.832,3.968c-0.7,1.709-2.09,3.281-2.806,3.749c-3.678,2.399-6.66,2.919-11.092,0.395
			c-4.077-2.325-4.472-7.673-4.253-9.252c0.218-1.578,1.402-5.304,5.304-7.322C13.656,3.351,17.996,5.207,19.135,5.924z"/>
		<path style="&st0;" d="M18.522,12.591c0.066-0.328,0.353-1.745,0.099-2.509c-0.241-0.724-0.439-1.637-2.093-2.345
			c-0.109-0.047-0.624-0.335-1.229-0.45c-0.678-0.128-1.45-0.081-1.491-0.099c-0.491-0.21-1.731-0.569-2.936,0.416
			c0,0-0.308,0.22-0.921,0.351c0,0-1.119,0.636-1.097,1.316C8.876,9.95,9.022,9.909,9.03,10.125c0.007,0.226,0,0.35-0.023,0.439
			c-0.022,0.087,0.303,0.12,0.418,0.152c0.152,0.044,0.636,0.6,0.168,1.36c0,0-0.52,0.503-0.717,0.584
			c-0.175,0.073,0.044,0.277,0.131,0.38c0,0,0.307,0.22,0.22,0.409c-0.088,0.19-0.121,0.14-0.102,0.424
			c0.004,0.071,0.08,0.077,0.248,0.22c0,0,0.052,0.021-0.025,0.163c-0.078,0.143-0.066,0.089,0.055,0.241
			c0.12,0.154,0.165,0.078,0.165,0.285c0,0.209-0.099,0.198-0.23,0.396c0,0-0.144,0.57,0.273,0.811
			c0.417,0.242,1.206,0.438,1.852,0.208c0.155-0.056,0.65-0.097,0.593,0.591c-0.012,0.132-0.23,0.702-0.57,0.931
			c-0.046,0.031,0.132,0.133,0.175,0.263c0.045,0.132-1.435,1.754-1.479,1.885c-0.045,0.133,0.611,0.519,1.875,0.8
			c0.635,0.144,1.924,0.29,2.806,0.144c0.921-0.154,1.676-0.365,2.466-0.68c0.165-0.066,1.327-0.483,0.833-0.813
			c-0.493-0.329-1.577-1.775-1.71-1.829c-0.131-0.055-0.033-0.241,0.012-0.329c0.043-0.088-0.023-0.142-0.197-0.317
			c-0.177-0.176-0.243-0.998-0.243-0.998s0.5,0.008,0.942-0.099c0.431-0.104,0.808-0.3,0.878-0.33
			c0.296-0.131,1.834-0.922,1.107-1.491c-0.503-0.394-0.34-0.646-0.439-1.304"/>
	</g>
	<path style="&st0;" d="M76.991,10.085c-0.115-1.644-0.68-2.838-1.761-3.752c-0.955-0.807-2.454-1.443-4.18-1.443h-8.805v18.022
		h3.693v-7.042h5.127c1.942,0,3.398-0.63,4.367-1.687C76.399,13.128,77.089,11.493,76.991,10.085z M72.386,12.174
		c-0.587,0.345-1.352,0.516-2.295,0.516h-4.179V8.103h4.179c0.808,0,1.445,0.091,1.909,0.272c0.843,0.352,1.265,1.013,1.265,1.987
		C73.266,11.226,72.973,11.832,72.386,12.174z"/>
	<path style="&st0;" d="M50.312,3.836c-5.446,0-9.861,4.415-9.861,9.861c0,5.446,4.415,9.861,9.861,9.861
		c5.446,0,9.861-4.415,9.861-9.861C60.173,8.251,55.758,3.836,50.312,3.836z M50.312,20.256c-3.622,0-6.559-2.937-6.559-6.56
		c0-3.623,2.937-6.56,6.559-6.56c3.623,0,6.56,2.937,6.56,6.56C56.872,17.32,53.935,20.256,50.312,20.256z"/>
</g>
</svg>
