<?xml version="1.0" encoding="utf-8"?>
<!-- Generator: Adobe Illustrator 16.0.0, SVG Export Plug-In . SVG Version: 6.00 Build 0)  -->
<!DOCTYPE svg PUBLIC "-//W3C//DTD SVG 1.1//EN" "http://www.w3.org/Graphics/SVG/1.1/DTD/svg11.dtd">
<svg version="1.1" id="Layer_1" xmlns="http://www.w3.org/2000/svg" xmlns:xlink="http://www.w3.org/1999/xlink" x="0px" y="0px"
	 width="220px" height="40px" viewBox="0 0 220 40" enable-background="new 0 0 220 40" xml:space="preserve">
<g>
	<path fill="#444342" d="M188.629,31.352V20.296c0-5.217-2.521-7.463-6.356-7.463c-2.28,0-3.974,1.071-5.009,2.592v-2.212h-2.593
		v18.139h2.593V20.745c0-3.973,1.968-5.666,4.491-5.666c2.902,0,4.284,1.761,4.284,5.666v10.606H188.629z"/>
	<g>
		<path fill="#F16722" d="M17.279,27.217c3.972,0,7.191-3.222,7.191-7.193c0-3.972-3.219-7.192-7.191-7.192
			c-3.971,0-7.192,3.22-7.192,7.192C10.087,23.995,13.308,27.217,17.279,27.217"/>
		<path fill="#0DA9A0" d="M28.876,31.62H5.683V8.426h23.194V31.62z M17.279,3.503c-9.124,0-16.52,7.396-16.52,16.521
			s7.396,16.521,16.52,16.521c9.124,0,16.521-7.396,16.521-16.521S26.403,3.503,17.279,3.503"/>
		<path fill="#9FC854" d="M17.279,12.832c3.973,0,7.192,3.22,7.192,7.192c0,3.973-3.22,7.193-7.192,7.193
			c-3.973,0-7.192-3.22-7.192-7.193C10.087,16.051,13.306,12.832,17.279,12.832 M5.604,31.699h23.349V8.349H5.604V31.699z"/>
	</g>
	<polygon fill="#444342" points="150.384,9.541 150.384,4.855 145.616,7.24 145.616,10.852 	"/>
	<rect x="145.616" y="13.213" fill="#444342" width="4.768" height="18.139"/>
	<path fill="#444342" d="M167.037,14.111c-0.621-0.657-1.796-1.278-3.351-1.278c-1.691,0-2.902,0.725-3.731,1.589v-1.209h-4.768
		v18.139h4.768v-9.812c0-3.144,1.209-3.938,3.076-3.938c1.07,0,2.004,0.484,2.764,1.175L167.037,14.111z"/>
	<path fill="#444342" d="M170.525,29.521c0-1.208-1.038-2.28-2.212-2.28c-1.207,0-2.21,1.072-2.21,2.28
		c0,1.209,1.003,2.211,2.21,2.211C169.488,31.731,170.525,30.729,170.525,29.521"/>
	<path fill="#444342" d="M140.987,25.789c-1.175,1.002-1.831,1.381-2.696,1.381c-1.14,0-1.762-0.448-1.762-2.176v-7.289h4.354
		v-4.492h-4.354V6.165l-4.768,2.384v4.664h-3.04v4.492h3.04v8.566c0,3.18,1.9,5.46,4.838,5.46c1.485,0,2.9-0.482,3.695-1.105
		L140.987,25.789z"/>
	<path fill="#444342" d="M125.885,31.352V21.125c0-5.113-2.072-8.292-6.703-8.292c-1.9,0-3.419,0.725-4.249,1.589v-1.209h-4.768
		v18.139h4.768v-9.916c0-3.144,1.14-4.111,3.109-4.111c1.969,0,3.075,0.967,3.075,4.215v9.812H125.885z"/>
	<path fill="#444342" d="M98.349,12.833c-2.938,0-4.699,0.622-6.806,1.831l1.831,3.317c1.658-0.898,2.798-1.209,4.975-1.209
		c1.727,0,2.591,1.036,2.591,2.314v0.898c-0.76-0.38-1.831-0.726-3.49-0.726c-4.111,0-7.358,2.005-7.358,6.011
		c0,4.388,3.386,6.462,6.771,6.462c1.693,0,3.213-0.689,4.077-1.588v1.208h4.768V19.19C105.708,15.114,102.737,12.833,98.349,12.833
		z M100.94,26.029c-0.518,0.865-1.763,1.66-3.316,1.66c-2.04,0-2.765-1.139-2.765-2.42c0-1.451,0.968-2.279,2.765-2.279
		c1.692,0,2.487,0.242,3.316,0.761V26.029z"/>
	<polygon fill="#444342" points="86.498,31.352 86.498,6.165 81.731,8.549 81.731,31.352 	"/>
	<path fill="#444342" d="M69.742,12.833c-2.937,0-4.699,0.622-6.806,1.831l1.831,3.317c1.658-0.898,2.798-1.209,4.975-1.209
		c1.729,0,2.591,1.036,2.591,2.314v0.898c-0.759-0.38-1.831-0.726-3.489-0.726c-4.111,0-7.359,2.005-7.359,6.011
		c0,4.388,3.386,6.462,6.771,6.462c1.693,0,3.214-0.689,4.077-1.588v1.208h4.768V19.19C77.102,15.114,74.131,12.833,69.742,12.833z
		 M72.333,26.029c-0.518,0.865-1.762,1.66-3.316,1.66c-2.039,0-2.764-1.139-2.764-2.42c0-1.451,0.967-2.279,2.764-2.279
		c1.693,0,2.487,0.242,3.316,0.761V26.029z"/>
	<path fill="#444342" d="M51.812,12.833c-1.727,0-2.937,0.725-3.834,1.52v-1.14h-4.768V38.02l4.768-2.384v-5.32
		c0.863,0.794,2.245,1.416,3.834,1.416c4.492,0,7.048-3.8,7.048-9.225C58.86,15.735,55.682,12.833,51.812,12.833z M51.191,27.24
		c-1.382,0-2.487-0.553-3.212-1.555v-6.841c0.691-0.899,1.451-1.521,2.936-1.521c1.865,0,3.109,1.555,3.109,5.285
		C54.024,25.652,53.022,27.24,51.191,27.24z"/>
	<path fill="#444342" d="M217.979,15.389v-2.176h-4.491V6.165l-2.591,1.45v5.598h-2.247v2.176h2.247V27.62
		c0,3.006,1.209,4.111,3.455,4.111c1.382,0,2.348-0.208,3.351-0.622l0.173-2.245c-0.828,0.345-1.521,0.517-2.555,0.517
		c-1.383,0-1.833-0.552-1.833-2.175V15.389H217.979z"/>
	<path fill="#444342" d="M206.682,21.746c0-5.182-2.557-8.913-7.291-8.913c-4.318,0-7.497,3.594-7.497,9.362
		c0,7.117,4.042,9.536,7.359,9.536c2.729,0,4.318-0.726,6.495-2.106l-1.21-1.866c-1.658,1.105-2.901,1.727-5.009,1.727
		c-2.973,0-4.801-2.452-5.045-6.323h12.094C206.647,22.75,206.682,22.369,206.682,21.746z M194.484,21.056
		c0.312-4.042,2.177-5.977,4.873-5.977c3.178,0,4.697,2.453,4.906,5.977H194.484z"/>
</g>
</svg>
